<svg xmlns="http://www.w3.org/2000/svg" width="35" height="35" viewBox="0 0 35 35">
  <g id="how4" transform="translate(-196 -3966)">
    <rect id="Rectangle_88" data-name="Rectangle 88" width="35" height="35" transform="translate(196 3966)" fill="none"/>
    <g id="Group_167" data-name="Group 167" transform="translate(-93.333 3552.536)">
      <path id="Path_115" data-name="Path 115" d="M305.343,424.2h-1.929v2.49a2.8,2.8,0,0,0,.351,5.575h1.227a.877.877,0,1,1,0,1.754H300.96v1.929h2.454v2.454h1.929v-2.49a2.8,2.8,0,0,0-.351-5.575h-1.227a.877.877,0,0,1,0-1.754H307.8v-1.928h-2.454Z" transform="translate(2.454 2.181)" fill="#ae9d7f"/>
      <path id="Path_116" data-name="Path 116" d="M321.3,416.569H292.369v14.2h6.137V445.5H315.16V430.769H321.3Zm-8.065,27h-12.8V424.634h12.8v18.933Zm6.136-14.726H315.16v-4.207h1.49v-1.929H297.014v1.929h1.491v4.207H294.3V418.5h25.071Z" transform="translate(0 0)" fill="#ae9d7f"/>
    </g>
  </g>
</svg>
